<svg
  xmlns="http://www.w3.org/2000/svg"
  version="1.1"
  xmlns:xlink="http://www.w3.org/1999/xlink"
  preserveAspectRatio="none"
  x="0px"
  y="0px"
  width="2048px"
  height="2048px"
  viewBox="0 0 2048 2048"
>
  <defs />

  <g id="bg_red">
    <g>
      <g>
        <g>
          <path
            fill="#FF5C5C"
            stroke="none"
            d="
M 1474.7 1570.2
L 1474.7 478 1024 27.3 573.3 478 573.3 1570.2 1024 2020.9 1474.7 1570.2 Z"
          />
        </g>
      </g>
    </g>
  </g>

  <g id="bg_orange">
    <g>
      <g>
        <g>
          <path
            fill="#F79454"
            stroke="none"
            d="
M 1474.7 478
L 1335 338.35
Q 1119.63203125 312.8162109375 983.45 375.3 760.476953125 484.6455078125 573.3 532.7
L 573.3 1570.2 1024 2020.9 1474.7 1570.2 1474.7 478 Z"
          />
        </g>
      </g>
    </g>
  </g>

  <g id="bg_yellow">
    <g>
      <g>
        <g>
          <path
            fill="#FFDB5C"
            stroke="none"
            d="
M 1474.7 1570.2
L 1474.7 715.65
Q 1101.4552734375 607.109375 720.8 718.6 645.7658203125 738.4705078125 573.3 751.2
L 573.3 1570.2 1024 2020.9 1474.7 1570.2 Z"
          />
        </g>
      </g>
    </g>
  </g>

  <g id="bg_green">
    <g>
      <g>
        <g>
          <path
            fill="#5CFF9D"
            stroke="none"
            d="
M 1474.7 1103.4
Q 1421.4962890625 1094.821484375 1367.8 1081.35 985.4083984375 983.1751953125 636.95 1034.65 605.0314453125 1039.578515625 573.3 1043.5
L 573.3 1570.2 1024 2020.9 1474.7 1570.2 1474.7 1103.4 Z"
          />
        </g>
      </g>
    </g>
  </g>

  <g id="bg_blue">
    <g>
      <g>
        <g>
          <path
            fill="#5C6CFF"
            stroke="none"
            d="
M 1474.7 1570.2
L 1474.7 1425.05
Q 1429.693359375 1414.8580078125 1384.1 1401.3 1002.9962890625 1282.819140625 649.45 1391.35 611.7119140625 1402.975390625 573.3 1413.45
L 573.3 1570.2 1024 2020.9 1474.7 1570.2 Z"
          />
        </g>
      </g>
    </g>
  </g>

  <g id="bg_purple">
    <g>
      <g>
        <g>
          <path
            fill="#B75CFF"
            stroke="none"
            d="
M 721.45 1718.35
L 1024 2020.9 1319.6 1725.3
Q 1025.5435546875 1658.9794921875 721.45 1718.35 Z"
          />
        </g>
      </g>
    </g>
  </g>

  <g id="mask">
    <g>
      <g>
        <g>
          <path
            fill="#23272A"
            fill-opacity="0.09803921568627451"
            stroke="none"
            d="
M 1059.5 163.1
L 1109.6 112.9 1024 27.3 573.3 478 573.3 649.3 641.8 580.8 642.1 580.6 641.8 580.7 1024 120.3 1059.5 163.1
M 1406.2 1177.1
L 1406.2 635.3 641.8 1041.1 641.8 1453.5 1406.2 1177.1
M 1474.7 1570.2
L 1474.7 1433.3 1405.7 1502.3 1024 1962 988.6 1919.4 955.6 1952.5 1024 2020.9 1474.7 1570.2 Z"
          />

          <path
            fill="#23272A"
            stroke="none"
            d="
M 1406.2 635.3
L 1406.2 580.7 1059.5 163.1 1024 120.3 641.8 580.7 642.1 580.6 641.8 580.8 641.8 1041.1 1406.2 635.3
M 1405.7 1502.3
L 1406.2 1501.7 1406.2 1177.1 641.8 1453.5 641.8 1501.6 988.6 1919.4 1024 1962 1405.7 1502.3 Z"
          />
        </g>
      </g>
    </g>
  </g>
</svg>
