
<svg xmlns="http://www.w3.org/2000/svg" version="1.1" xmlns:xlink="http://www.w3.org/1999/xlink" preserveAspectRatio="none" x="0px" y="0px" width="420px" height="40px" viewBox="0 0 420 40">
<defs>
<linearGradient id="Gradient_1" gradientUnits="userSpaceOnUse" x1="1273.1875" y1="560.95" x2="5496.5125" y2="560.95" spreadMethod="pad">
<stop  offset="0%" stop-color="#4CA2CD" stop-opacity="0.984313725490196"/>

<stop  offset="100%" stop-color="#67B26F"/>
</linearGradient>

<linearGradient id="Gradient_2" gradientUnits="userSpaceOnUse" x1="1273.1875" y1="647.45" x2="5496.5125" y2="647.45" spreadMethod="pad">
<stop  offset="0%" stop-color="#4CA2CD" stop-opacity="0.984313725490196"/>

<stop  offset="100%" stop-color="#67B26F"/>
</linearGradient>

<linearGradient id="Gradient_3" gradientUnits="userSpaceOnUse" x1="1273.1875" y1="562.7" x2="5496.5125" y2="562.7" spreadMethod="pad">
<stop  offset="0%" stop-color="#4CA2CD" stop-opacity="0.984313725490196"/>

<stop  offset="100%" stop-color="#67B26F"/>
</linearGradient>

<linearGradient id="Gradient_4" gradientUnits="userSpaceOnUse" x1="1273.1875" y1="741.25" x2="5496.5125" y2="741.25" spreadMethod="pad">
<stop  offset="0%" stop-color="#4CA2CD" stop-opacity="0.984313725490196"/>

<stop  offset="100%" stop-color="#67B26F"/>
</linearGradient>

<linearGradient id="Gradient_5" gradientUnits="userSpaceOnUse" x1="1273.1875" y1="737.95" x2="5496.5125" y2="737.95" spreadMethod="pad">
<stop  offset="0%" stop-color="#4CA2CD" stop-opacity="0.984313725490196"/>

<stop  offset="100%" stop-color="#67B26F"/>
</linearGradient>

<linearGradient id="Gradient_6" gradientUnits="userSpaceOnUse" x1="1273.1875" y1="646.6" x2="5496.5125" y2="646.6" spreadMethod="pad">
<stop  offset="0%" stop-color="#4CA2CD" stop-opacity="0.984313725490196"/>

<stop  offset="100%" stop-color="#67B26F"/>
</linearGradient>

<linearGradient id="Gradient_7" gradientUnits="userSpaceOnUse" x1="1273.1875" y1="642.45" x2="5496.5125" y2="642.45" spreadMethod="pad">
<stop  offset="0%" stop-color="#4CA2CD" stop-opacity="0.984313725490196"/>

<stop  offset="100%" stop-color="#67B26F"/>
</linearGradient>

<linearGradient id="Gradient_8" gradientUnits="userSpaceOnUse" x1="1037.825" y1="239.60000000000002" x2="214.97499999999997" y2="1003.3000000000001" spreadMethod="pad">
<stop  offset="0%" stop-color="#208DC5"/>

<stop  offset="4.313725490196078%" stop-color="#208DC5"/>

<stop  offset="100%" stop-color="#16C58D"/>
</linearGradient>

<linearGradient id="Gradient_9" gradientUnits="userSpaceOnUse" x1="602.05" y1="1045.4" x2="659.25" y2="590.1999999999999" spreadMethod="pad">
<stop  offset="0%" stop-color="#FFFFFF"/>

<stop  offset="100%" stop-color="#FFFFFF" stop-opacity="0.8470588235294118"/>
</linearGradient>

<linearGradient id="Gradient_10" gradientUnits="userSpaceOnUse" x1="912.2" y1="479.175" x2="-6.400000000000034" y2="475.425" spreadMethod="pad">
<stop  offset="0%" stop-color="#208DC5"/>

<stop  offset="30.58823529411765%" stop-color="#208DC5"/>

<stop  offset="31.764705882352942%" stop-color="#1BAAA8"/>

<stop  offset="65.09803921568627%" stop-color="#1BA9A9"/>

<stop  offset="66.27450980392157%" stop-color="#16C58D"/>

<stop  offset="100%" stop-color="#16C58D"/>
</linearGradient>

<g id="Layer1_0_FILL">
<path fill="#000000" stroke="none" d="
M 204 40
Q 206.05 40 207.55 38.55 209 37.1 209 35
L 209 5
Q 209 2.95 207.55 1.45 206.05 0 204 0
L 5 0
Q 2.9 0 1.45 1.45 0 2.95 0 5
L 0 35
Q 0 37.1 1.45 38.55 2.9 40 5 40
L 204 40 Z"/>
</g>

<g id="Layer1_1_FILL">
<path fill="#FFFFFF" stroke="none" d="
M 20 13
L 12 27 28 27 20 13 Z"/>
</g>

<g id="Layer1_3_FILL">
<path fill="#FFFFFF" stroke="none" d="
M 60.45 15.45
Q 59.35 14.4 57.4 14.4
L 53.25 14.4 53.25 26 55 26 55 21.95 57.4 21.95
Q 59.35 21.95 60.45 20.85 61.45 19.85 61.45 18.15 61.45 16.45 60.45 15.45
M 57.2 15.9
Q 59.65 15.9 59.65 18.15 59.65 20.45 57.25 20.45
L 55 20.45 55 15.9 57.2 15.9
M 69.9 18.45
Q 68.75 17.2 66.9 17.2 65.05 17.2 63.95 18.45 62.85 19.65 62.85 21.7 62.85 23.75 63.95 24.95 65.05 26.2 66.9 26.2 68.75 26.2 69.9 24.95 71 23.75 71 21.7 71 19.65 69.9 18.45
M 65.15 23.85
Q 64.55 23 64.55 21.7 64.55 20.35 65.15 19.5 65.75 18.6 66.9 18.6 68.05 18.6 68.7 19.5 69.25 20.35 69.25 21.7 69.25 23 68.7 23.85 68.05 24.75 66.9 24.75 65.75 24.75 65.15 23.85
M 99.6 17.2
L 98.9 17.15
Q 97.2 17.15 96.7 18.7
L 96.6 18.7 96.6 17.3 94.95 17.3 94.95 26 96.65 26 96.65 20.7
Q 96.65 19.85 97.25 19.3 97.8 18.75 98.75 18.75
L 99.6 18.85 99.6 17.2
M 86.25 18.45
Q 85.15 19.7 85.15 21.7 85.15 23.75 86.25 25 87.4 26.2 89.3 26.2 90.7 26.2 91.7 25.55 92.65 24.9 92.95 23.85
L 91.35 23.55
Q 90.9 24.8 89.35 24.8 88.25 24.8 87.6 24.1 86.9 23.4 86.85 22.15
L 93.05 22.15 93.05 21.55
Q 93.05 19.35 91.85 18.2 90.85 17.2 89.2 17.2 87.4 17.2 86.25 18.45
M 89.2 18.6
Q 90.2 18.6 90.8 19.25 91.4 19.9 91.4 20.9
L 86.85 20.9
Q 86.95 19.95 87.55 19.3 88.2 18.6 89.2 18.6
M 84.2 17.3
L 82.45 17.3 80.75 23.7 80.65 23.7 78.95 17.3 77.2 17.3 75.5 23.7 75.4 23.7 73.7 17.3 71.95 17.3 74.5 26 76.25 26 78 19.7 78.15 19.7 79.9 26 81.65 26 84.2 17.3
M 110.85 18.4
Q 109.8 19.6 109.8 21.7 109.8 23.75 110.8 25 111.8 26.2 113.45 26.2 115.1 26.2 115.95 24.65
L 116.1 24.65 116.1 26 117.75 26 117.75 14.4 116.05 14.4 116.05 18.7 115.95 18.7
Q 115.15 17.2 113.45 17.2 111.85 17.2 110.85 18.4
M 112.1 23.85
Q 111.5 23 111.5 21.65 111.5 20.3 112.05 19.5 112.7 18.65 113.8 18.65 114.9 18.65 115.5 19.5 116.1 20.25 116.1 21.65 116.1 23.05 115.5 23.9 114.9 24.75 113.8 24.75 112.7 24.75 112.1 23.85
M 104.4 17.2
Q 102.6 17.2 101.5 18.45 100.4 19.7 100.4 21.7 100.4 23.8 101.5 25 102.6 26.2 104.55 26.2 105.95 26.2 106.95 25.55 107.9 24.9 108.15 23.85
L 106.55 23.55
Q 106.1 24.8 104.55 24.8 103.45 24.8 102.8 24.1 102.1 23.4 102.05 22.15
L 108.3 22.15 108.3 21.55
Q 108.3 19.35 107.1 18.2 106.05 17.2 104.4 17.2
M 102.1 20.9
Q 102.15 19.95 102.75 19.3 103.45 18.6 104.45 18.6 105.4 18.6 106 19.25 106.6 19.9 106.6 20.9
L 102.1 20.9
M 141.6 17.3
L 139.75 17.3 137.55 24.05 137.45 24.05 135.25 17.3 133.45 17.3 136.6 26.15 136.4 26.7
Q 136.1 27.5 135.6 27.75 135.2 27.9 134.45 27.7
L 134.05 29.1
Q 134.35 29.25 135.2 29.25 137.25 29.25 138 27.2
L 141.6 17.3
M 131.45 18.4
Q 130.45 17.2 128.85 17.2 127.15 17.2 126.35 18.7
L 126.25 18.7 126.25 14.4 124.55 14.4 124.55 26 126.2 26 126.2 24.65 126.35 24.65
Q 127.2 26.2 128.85 26.2 130.5 26.2 131.5 25 132.5 23.75 132.5 21.7 132.5 19.6 131.45 18.4
M 130.25 19.5
Q 130.8 20.3 130.8 21.65 130.8 23 130.2 23.85 129.6 24.75 128.5 24.75 127.45 24.75 126.8 23.9 126.2 23.05 126.2 21.65 126.2 20.25 126.8 19.5 127.4 18.65 128.5 18.65 129.6 18.65 130.25 19.5
M 152.2 23.25
L 149.4 14.4 146.65 14.4 150.7 26 153.85 26 157.85 14.4 155.15 14.4 152.3 23.25 152.2 23.25
M 180.65 18.1
Q 179.55 17.2 177.85 17.2 175.9 17.2 174.7 18.45 173.55 19.65 173.55 21.7 173.55 23.7 174.7 24.95 175.9 26.2 177.85 26.2 179.6 26.2 180.65 25.3 181.7 24.35 181.75 22.85
L 179.5 22.85
Q 179.25 24.3 177.9 24.3 176.05 24.3 176.05 21.65 176.05 19.05 177.9 19.05 179.25 19.05 179.5 20.5
L 181.75 20.5
Q 181.7 19 180.65 18.1
M 165 18.3
Q 163.9 17.2 162.1 17.2 160.2 17.2 159 18.45 157.85 19.7 157.85 21.7 157.85 23.75 159 25 160.2 26.2 162.2 26.2 163.8 26.2 164.85 25.45 165.9 24.75 166.15 23.5
L 163.9 23.4
Q 163.5 24.4 162.25 24.4 161.35 24.4 160.8 23.85 160.25 23.25 160.25 22.3
L 166.2 22.3 166.2 21.6
Q 166.2 19.45 165 18.3
M 162.15 19
Q 162.95 19 163.45 19.5 163.9 20 163.95 20.8
L 160.25 20.8
Q 160.3 20.05 160.8 19.55 161.35 19 162.15 19
M 170.15 17.3
L 167.8 17.3 167.8 26 170.2 26 170.2 21.1
Q 170.2 20.3 170.75 19.75 171.25 19.25 172.05 19.25
L 173.1 19.4 173.1 17.25 172.3 17.15
Q 170.75 17.15 170.2 18.8
L 170.15 18.8 170.15 17.3
M 195.3 14.4
L 192.9 14.4 192.9 26 195.3 26 195.3 14.4
M 187.2 17.2
Q 185.3 17.2 184.1 18.45 182.95 19.7 182.95 21.7 182.95 23.75 184.1 25 185.3 26.2 187.3 26.2 188.9 26.2 189.95 25.45 191 24.75 191.25 23.5
L 189 23.4
Q 188.6 24.4 187.35 24.4 186.4 24.4 185.9 23.85 185.35 23.3 185.35 22.3
L 191.3 22.3 191.3 21.6
Q 191.3 19.45 190.1 18.3 189 17.2 187.2 17.2
M 185.35 20.8
Q 185.4 20.05 185.9 19.55 186.45 19 187.25 19 188.05 19 188.5 19.5 189 20 189 20.8
L 185.35 20.8 Z"/>
</g>

<g id="Layer0_0_MEMBER_0_MEMBER_0_FILL">
<path fill="url(#Gradient_1)" stroke="none" d="
M 1755.45 332.25
Q 1727 280.25 1672.55 251.05 1618.2 221.55 1541 221.55
L 1273.2 221.55 1273.2 900.35 1416.7 900.35 1416.7 680.25 1537.35 680.25
Q 1615.6 680.25 1670.6 651.4 1725.9 622.65 1755.1 570.9 1784.25 519.2 1784.25 451.55 1784.25 383.9 1755.45 332.25
M 1513.5 338.85
Q 1555.15 338.85 1582.4 353.15 1609.55 367 1622.85 392.55 1636.45 417.8 1636.45 451.55 1636.45 485 1622.85 510.9 1609.55 536.4 1582.4 551 1555.55 565.25 1514.15 565.25
L 1416.7 565.25 1416.7 338.85 1513.5 338.85 Z"/>
</g>

<g id="Layer0_0_MEMBER_0_MEMBER_1_FILL">
<path fill="url(#Gradient_2)" stroke="none" d="
M 2316.7 785.3
Q 2347.2 725.9 2347.2 647.8 2347.2 569 2316.7 509.9 2286.2 450.6 2229.85 417.75 2173.8 384.6 2096.6 384.6 2019.35 384.6 1963.05 417.75 1906.95 450.65 1876.55 509.9 1846.05 568.9 1846.05 647.8 1846.05 726 1876.55 785.3 1906.95 844.25 1963.05 877.45 2019.35 910.3 2096.6 910.3 2173.8 910.3 2229.85 877.45 2286.2 844.3 2316.7 785.3
M 2155.95 512.55
Q 2179.5 532.8 2191.4 567.55 2203.65 602.2 2203.65 646.8 2203.65 691.35 2191.4 726 2179.45 760.85 2155.95 781 2132.35 800.9 2097.3 800.9 2061.85 800.9 2037.6 781 2013.75 760.8 2001.5 726 1989.55 691.15 1989.55 646.8 1989.55 602.4 2001.5 567.55 2013.7 532.85 2037.6 512.55 2061.75 492.35 2097.3 492.35 2132.45 492.35 2155.95 512.55 Z"/>
</g>

<g id="Layer0_0_MEMBER_0_MEMBER_2_FILL">
<path fill="url(#Gradient_3)" stroke="none" d="
M 2634.85 792.3
Q 2628.75 793.3 2618.3 793.6 2597.8 793.6 2589.15 783 2580.9 772.1 2580.5 747.85
L 2580.5 221.55 2439.3 221.55 2439.3 766.75
Q 2439.7 839.3 2478.45 873.15 2517.3 906.65 2598.4 903.65 2624.75 902.7 2640.5 899.35 2656.75 895.6 2667.35 892.4
L 2644.8 789.65
Q 2641 791.2 2634.85 792.3 Z"/>
</g>

<g id="Layer0_0_MEMBER_0_MEMBER_3_FILL">
<path fill="url(#Gradient_4)" stroke="none" d="
M 3195 391.25
L 3045.5 391.25 2939.15 765.1 2933.85 765.1 2828.45 391.25 2679.95 391.25 2862.55 914.9 2854.3 936.45
Q 2844.95 960.4 2830.1 970.25 2815.5 980.25 2795.3 979.55 2775.3 978.85 2750.55 971.25
L 2718.7 1076.65
Q 2734.1 1083 2757.15 1086.95 2780.85 1091.25 2807.55 1091.25 2859.85 1091.25 2897.05 1074.35 2934.1 1057.8 2958.35 1026.95 2982.95 996.35 2997.15 955.35
L 3195 391.25 Z"/>
</g>

<g id="Layer0_0_MEMBER_0_MEMBER_4_FILL">
<path fill="url(#Gradient_5)" stroke="none" d="
M 3406.45 391.25
L 3267.25 391.25 3267.25 1091.25 3408.45 1091.25 3408.45 818.8 3412.75 818.8
Q 3422.3 839.85 3440.6 860.9 3458.75 881.35 3487.35 895.05 3516.1 908.6 3557.25 908.6 3615.35 908.6 3662 878.8 3709 848.65 3736.25 790.3 3763.75 731.7 3763.75 646.45 3763.75 559 3735.6 500.95 3707.4 442.6 3660.35 413.8 3613.2 384.6 3557.6 384.6 3514.85 384.6 3486 399.2 3457.6 413.4 3439.6 435 3422.05 456.25 3412.75 476.75
L 3406.45 476.75 3406.45 391.25
M 3418.05 566.9
Q 3430.65 533.4 3454.2 515.2 3478.1 496.95 3512.5 496.95 3547.3 496.95 3571.2 515.85 3595.1 534.8 3607.3 568.25 3619.55 601.55 3619.55 645.8 3619.55 690.35 3607 724.35 3594.7 758.15 3570.85 777.35 3547 796.25 3512.5 796.25 3478.45 796.25 3454.5 777.7 3430.65 758.8 3418.05 725 3405.45 691.15 3405.45 645.8 3405.45 600.35 3418.05 566.9 Z"/>
</g>

<g id="Layer0_0_MEMBER_0_MEMBER_5_FILL">
<path fill="url(#Gradient_6)" stroke="none" d="
M 4193.95 476.75
L 4189.65 476.75
Q 4180.35 456.2 4162.45 435 4144.85 413.4 4116.05 399.2 4087.6 384.6 4044.8 384.6 3988.8 384.6 3941.75 413.8 3894.95 442.65 3866.85 500.95 3838.65 558.9 3838.65 646.45 3838.65 731.7 3865.85 790.3 3893.3 848.65 3940.05 878.8 3987.05 908.6 4045.15 908.6 4086.3 908.6 4114.75 895.05 4143.65 881.35 4161.5 860.9 4179.65 840.05 4189.65 818.8
L 4195.6 818.8 4195.6 900.35 4334.8 900.35 4334.8 391.25 4193.95 391.25 4193.95 476.75
M 4147.9 515.2
Q 4171.75 533.4 4184.35 566.9 4196.95 600.35 4196.95 645.8 4196.95 691.25 4184 725 4171.4 758.8 4147.55 777.7 4123.95 796.25 4089.9 796.25 4055.15 796.25 4031.2 777.35 4007.7 758.1 3995.1 724.35 3982.85 690.35 3982.85 645.8 3982.85 601.55 3995.1 568.25 4007.3 534.8 4031.2 515.85 4055.15 496.95 4089.9 496.95 4124 496.95 4147.9 515.2 Z"/>
</g>

<g id="Layer0_0_MEMBER_0_MEMBER_6_FILL">
<path fill="url(#Gradient_7)" stroke="none" d="
M 4591 481.05
L 4585.05 481.05 4585.05 391.25 4450.5 391.25 4450.5 900.35 4591.7 900.35 4591.7 606
Q 4592 573.2 4603.95 550 4616.1 526.55 4637.75 514.2 4659.7 501.95 4688.15 501.95 4730.5 501.95 4754.75 528.45 4779 554.65 4778.6 601.35
L 4778.6 900.35 4919.8 900.35 4919.8 576.2
Q 4919.8 516.9 4897.95 474.1 4876.05 431.05 4836.6 407.8 4797.1 384.6 4744.15 384.6 4687.5 384.6 4647.7 410.8 4607.95 436.7 4591 481.05 Z"/>
</g>

<g id="Layer0_0_MEMBER_0_MEMBER_7_FILL">
<path fill="url(#Gradient_2)" stroke="none" d="
M 5427.25 448.9
Q 5394.7 416.7 5351 400.85 5307.45 384.6 5257.2 384.6 5182.3 384.6 5126.65 417.75 5071.25 450.95 5040.8 510.25 5010.3 569.55 5010.3 648.1 5010.3 728.65 5040.8 787.65 5071.3 846.35 5127.6 878.45 5184.4 910.3 5262.85 910.3 5325.7 910.3 5373.9 891.05 5422.35 871.45 5452.75 836.7 5483.6 801.6 5493.55 754.5
L 5362.95 745.9
Q 5355.7 765 5341.75 778.35 5327.75 791.7 5308.25 798.25 5288.55 804.9 5265.15 804.9 5229.75 804.9 5203.85 789.95 5177.95 775.05 5163.75 747.55 5149.85 720.1 5149.85 682.25
L 5149.85 681.9 5496.5 681.9 5496.5 643.15
Q 5496.5 578.1 5478.3 529.8 5460.1 481.15 5427.25 448.9
M 5202.55 504.95
Q 5227.4 490 5259.55 490 5290.35 490 5313.55 503.6 5337.1 516.85 5350.35 540.4 5363.6 563.9 5363.6 594.4
L 5150 594.4
Q 5151.3 566.85 5164.1 544.35 5178 519.45 5202.55 504.95 Z"/>
</g>

<g id="Layer0_1_MEMBER_0_FILL">
<path fill="url(#Gradient_8)" stroke="none" d="
M 958.8 244.5
Q 889.2 174.9 799 136.75 705.55 97.25 603.3 97.25 501 97.25 407.6 136.75 317.35 174.9 247.8 244.5 178.2 314.1 140.05 404.3 100.55 497.7 100.55 600 100.55 702.3 140.05 795.7 178.2 885.95 247.8 955.55 317.35 1025.1 407.6 1063.3 501 1102.8 603.3 1102.8 705.6 1102.8 799 1063.3 889.2 1025.15 958.8 955.55 1028.4 885.95 1066.55 795.7 1106.05 702.3 1106.05 600 1106.05 497.7 1066.55 404.3 1028.4 314.1 958.8 244.5 Z"/>
</g>

<g id="Layer0_1_MEMBER_1_FILL">
<path fill="url(#Gradient_9)" stroke="none" d="
M 932.15 271.15
Q 867.8 206.8 784.35 171.5 697.9 134.95 603.3 134.95 508.65 134.95 422.25 171.5 338.8 206.8 274.4 271.15 210.05 335.5 174.75 419 138.2 505.4 138.2 600 138.2 694.65 174.75 781.05 210.05 864.5 274.4 928.9 338.8 993.25 422.25 1028.55 508.65 1065.1 603.3 1065.1 697.9 1065.1 784.35 1028.55 867.8 993.25 932.15 928.9 996.55 864.5 1031.85 781.05 1068.4 694.65 1068.4 600 1068.4 505.4 1031.85 419 996.55 335.5 932.15 271.15 Z"/>
</g>

<g id="Mask_powered_by_polypane_svg_svg2__Clip_Group__0_2_MASK_0_FILL">
<path fill="#FFFFFF" stroke="none" d="
M 837.55 313
Q 805.5 237.25 747.1 178.85 688.65 120.45 612.95 88.4 534.5 55.25 448.65 55.25 362.8 55.25 284.35 88.4 208.6 120.45 150.2 178.85 91.8 237.25 59.75 313 26.6 391.45 26.6 477.3 26.6 563.15 59.75 641.6 91.8 717.3 150.2 775.75 208.6 834.15 284.35 866.2 362.8 899.35 448.65 899.35 534.5 899.35 612.95 866.2 688.65 834.15 747.1 775.75 805.5 717.3 837.55 641.6 870.7 563.15 870.7 477.3 870.7 391.45 837.55 313 Z"/>
</g>

<g id="powered_by_polypane_svg_svg2__Clip_Group__0_Layer2_0_FILL">
<path fill="url(#Gradient_10)" stroke="none" d="
M 277.4 0
L 0 0 0 954.65 277.4 954.65 277.4 0
M 589.2 0
L 328.35 0 328.35 712.5 589.2 712.5 589.2 0
M 906.95 549.7
L 906.95 0 640.1 0 640.1 549.7 906.95 549.7 Z"/>
</g>

<path id="Layer1_2_1_STROKES" stroke="#333333" stroke-width="1" stroke-linejoin="miter" stroke-linecap="butt" stroke-miterlimit="4" fill="none" d="
M 40.5 0.05
L 40.5 40"/>
</defs>

<g transform="matrix( 1, 0, 0, 1, 0,0) ">
<use xlink:href="#Layer1_0_FILL"/>
</g>

<g transform="matrix( 1, 0, 0, 1, 0,0) ">
<use xlink:href="#Layer1_1_FILL"/>
</g>

<g transform="matrix( 1, 0, 0, 1, 0,0) ">
<use xlink:href="#Layer1_2_1_STROKES"/>
</g>

<g transform="matrix( 1, 0, 0, 1, 0,0) ">
<use xlink:href="#Layer1_3_FILL"/>
</g>

<g transform="matrix( 0.03399658203125, 0, 0, 0.03399658203125, 218.9,-0.45) ">
<use xlink:href="#Layer0_0_MEMBER_0_MEMBER_0_FILL"/>
</g>

<g transform="matrix( 0.03399658203125, 0, 0, 0.03399658203125, 218.9,-0.45) ">
<use xlink:href="#Layer0_0_MEMBER_0_MEMBER_1_FILL"/>
</g>

<g transform="matrix( 0.03399658203125, 0, 0, 0.03399658203125, 218.9,-0.45) ">
<use xlink:href="#Layer0_0_MEMBER_0_MEMBER_2_FILL"/>
</g>

<g transform="matrix( 0.03399658203125, 0, 0, 0.03399658203125, 218.9,-0.45) ">
<use xlink:href="#Layer0_0_MEMBER_0_MEMBER_3_FILL"/>
</g>

<g transform="matrix( 0.03399658203125, 0, 0, 0.03399658203125, 218.9,-0.45) ">
<use xlink:href="#Layer0_0_MEMBER_0_MEMBER_4_FILL"/>
</g>

<g transform="matrix( 0.03399658203125, 0, 0, 0.03399658203125, 218.9,-0.45) ">
<use xlink:href="#Layer0_0_MEMBER_0_MEMBER_5_FILL"/>
</g>

<g transform="matrix( 0.03399658203125, 0, 0, 0.03399658203125, 218.9,-0.45) ">
<use xlink:href="#Layer0_0_MEMBER_0_MEMBER_6_FILL"/>
</g>

<g transform="matrix( 0.03399658203125, 0, 0, 0.03399658203125, 218.9,-0.45) ">
<use xlink:href="#Layer0_0_MEMBER_0_MEMBER_7_FILL"/>
</g>

<g transform="matrix( 0.03399658203125, 0, 0, 0.03399658203125, 218.9,-0.45) ">
<use xlink:href="#Layer0_1_MEMBER_0_FILL"/>
</g>

<g transform="matrix( 0.03399658203125, 0, 0, 0.03399658203125, 218.9,-0.45) ">
<use xlink:href="#Layer0_1_MEMBER_1_FILL"/>
</g>

<g transform="matrix( 0.03399658203125, 0, 0, 0.03399658203125, 224,2.85) ">
<mask id="Mask_Mask_1">
<g transform="matrix( 1, 0, 0, 1, 0,0) ">
<use xlink:href="#Mask_powered_by_polypane_svg_svg2__Clip_Group__0_2_MASK_0_FILL"/>
</g>
</mask>

<g mask="url(#Mask_Mask_1)">
<g transform="matrix( 1, 0, 0, 1, 0,0) ">
<use xlink:href="#powered_by_polypane_svg_svg2__Clip_Group__0_Layer2_0_FILL"/>
</g>
</g>
</g>
</svg>
