<?xml version="1.0" standalone="no"?>
<!DOCTYPE svg PUBLIC "-//W3C//DTD SVG 20010904//EN"
 "http://www.w3.org/TR/2001/REC-SVG-20010904/DTD/svg10.dtd">
<svg version="1.0" xmlns="http://www.w3.org/2000/svg"
 width="4096.000000pt" height="4096.000000pt" viewBox="0 0 4096.000000 4096.000000"
 preserveAspectRatio="xMidYMid meet">
<metadata>
Created by potrace 1.14, written by Peter Selinger 2001-2017
</metadata>
<g transform="translate(0.000000,4096.000000) scale(0.100000,-0.100000)"
fill="#000000" stroke="none">
<path d="M15970 35904 l-4505 -4505 0 -10916 c0 -10455 1 -10918 18 -10939 10
-13 2038 -2043 4507 -4512 l4490 -4490 4502 4505 c2477 2477 4505 4506 4507
4508 2 2 3 4918 3 10924 l0 10921 -4503 4505 c-2477 2478 -4506 4505 -4509
4505 -3 0 -2032 -2028 -4510 -4506z m4545 2609 c17 -20 37 -44 45 -53 8 -9 42
-49 75 -90 33 -41 62 -77 65 -80 3 -3 33 -39 67 -80 33 -41 69 -84 79 -95 11
-11 55 -65 99 -120 44 -55 83 -102 86 -105 3 -3 41 -48 84 -100 43 -52 81 -97
84 -100 3 -3 22 -25 42 -50 20 -25 46 -56 58 -70 11 -14 24 -29 28 -35 17 -22
98 -120 103 -125 3 -3 37 -43 75 -90 38 -47 72 -87 75 -90 3 -3 25 -30 50 -60
25 -30 47 -57 50 -60 3 -3 25 -30 50 -60 25 -30 49 -60 55 -67 5 -6 24 -28 40
-49 17 -20 39 -47 50 -59 11 -13 27 -32 35 -42 18 -22 98 -120 122 -148 9 -11
67 -81 128 -155 62 -74 124 -148 139 -165 15 -16 33 -39 41 -51 8 -11 34 -43
57 -70 23 -27 112 -134 199 -239 87 -104 192 -231 233 -281 42 -50 92 -110
111 -134 19 -24 40 -48 45 -54 6 -6 42 -49 80 -96 39 -47 78 -94 88 -105 9
-11 56 -67 104 -125 47 -58 102 -125 123 -150 21 -25 73 -88 116 -140 43 -52
81 -97 84 -100 3 -3 25 -30 50 -60 25 -30 47 -57 50 -60 3 -3 34 -41 70 -85
35 -44 67 -82 70 -85 3 -3 59 -70 125 -150 65 -80 127 -154 136 -165 10 -11
36 -42 59 -70 23 -27 49 -59 59 -70 9 -11 57 -69 106 -130 49 -60 92 -112 95
-115 5 -4 178 -212 233 -280 46 -56 231 -279 245 -295 10 -11 40 -47 67 -80
26 -33 67 -82 90 -110 54 -64 156 -186 172 -205 80 -98 329 -398 375 -451 9
-11 31 -39 50 -61 18 -23 67 -82 109 -132 42 -50 190 -228 328 -396 139 -168
263 -316 274 -330 12 -14 42 -50 67 -80 25 -30 47 -57 50 -60 3 -3 35 -41 70
-85 35 -44 67 -82 70 -85 3 -3 25 -30 50 -60 25 -30 47 -57 50 -60 3 -3 25
-30 49 -60 25 -30 49 -59 55 -65 6 -5 38 -44 71 -85 33 -41 70 -86 81 -100 41
-47 158 -188 207 -247 19 -23 42 -49 51 -58 9 -9 16 -19 16 -23 0 -4 15 -23
33 -43 50 -58 114 -134 167 -199 19 -24 40 -48 45 -54 6 -6 53 -63 105 -126
52 -63 97 -117 100 -120 3 -3 23 -27 45 -55 61 -76 77 -95 112 -132 18 -19 31
-35 30 -37 -2 -2 24 -34 106 -130 10 -11 31 -36 45 -55 15 -18 37 -45 50 -60
60 -67 56 -26 56 -616 l1 -543 -75 -39 c-196 -103 -339 -179 -385 -205 -27
-16 -62 -34 -77 -39 -16 -6 -28 -16 -28 -22 0 -6 -3 -7 -7 -4 -3 4 -20 -2 -37
-12 -17 -10 -76 -42 -131 -71 -55 -29 -103 -58 -107 -64 -4 -6 -8 -8 -8 -3 0
4 -28 -8 -62 -27 -136 -73 -308 -164 -423 -224 -16 -8 -33 -20 -36 -25 -3 -5
-9 -8 -13 -7 -7 2 -76 -30 -86 -40 -3 -3 -27 -16 -55 -30 -27 -13 -53 -28 -56
-33 -3 -5 -9 -8 -13 -8 -11 2 -111 -51 -114 -60 -2 -5 -11 -9 -21 -9 -9 0 -27
-7 -39 -16 -12 -8 -66 -38 -119 -66 -54 -28 -120 -63 -148 -78 -27 -15 -75
-40 -105 -55 -30 -16 -63 -36 -74 -45 -10 -8 -20 -14 -22 -12 -4 2 -76 -33
-140 -69 -20 -11 -97 -52 -172 -91 -76 -39 -139 -75 -142 -79 -3 -4 -18 -11
-33 -14 -15 -4 -27 -11 -27 -17 0 -5 -4 -7 -9 -3 -6 3 -14 -3 -20 -12 -6 -10
-11 -15 -11 -11 0 7 -53 -20 -210 -105 -115 -62 -124 -67 -137 -67 -7 0 -13
-4 -13 -8 0 -4 -15 -15 -32 -23 -81 -38 -218 -113 -218 -118 0 -4 -10 -7 -22
-8 -11 -1 -24 -6 -27 -11 -3 -4 -37 -24 -76 -44 -170 -88 -210 -109 -217 -121
-4 -7 -8 -9 -8 -5 0 4 -30 -9 -67 -28 -126 -66 -258 -137 -318 -169 -33 -18
-105 -56 -160 -85 -138 -73 -139 -74 -147 -85 -4 -5 -8 -6 -8 -2 0 11 -80 -34
-80 -45 0 -5 -5 -6 -11 -2 -6 3 -14 3 -18 -2 -3 -5 -45 -29 -93 -53 -49 -24
-88 -49 -88 -54 0 -6 -3 -7 -6 -4 -7 7 -64 -21 -75 -36 -3 -5 -9 -8 -13 -8 -7
2 -45 -17 -126 -62 -30 -17 -94 -50 -142 -75 -49 -24 -88 -49 -88 -55 0 -6 -3
-7 -6 -4 -4 4 -39 -11 -78 -32 -39 -21 -109 -59 -156 -83 -47 -25 -116 -62
-155 -83 -38 -20 -122 -64 -185 -97 -63 -33 -137 -73 -165 -88 -27 -15 -90
-49 -140 -75 -49 -26 -93 -52 -97 -59 -4 -6 -8 -8 -8 -3 0 4 -28 -8 -62 -26
-103 -56 -229 -122 -298 -158 -36 -18 -67 -36 -70 -39 -3 -3 -20 -12 -37 -19
-18 -8 -33 -18 -33 -24 0 -6 -3 -8 -6 -4 -3 3 -29 -7 -57 -22 -29 -16 -88 -47
-132 -71 -44 -23 -82 -46 -83 -51 -2 -5 -8 -6 -13 -3 -6 3 -15 1 -22 -4 -14
-11 -87 -51 -207 -114 -47 -25 -114 -61 -150 -80 -107 -58 -323 -171 -347
-183 -13 -5 -23 -13 -23 -17 0 -5 -8 -8 -18 -8 -10 0 -22 -4 -28 -9 -11 -10
-109 -63 -419 -226 -60 -32 -132 -70 -160 -85 -27 -15 -77 -42 -110 -59 -33
-18 -68 -36 -77 -41 -24 -13 -33 -18 -183 -96 -71 -36 -135 -70 -140 -75 -6
-4 -57 -32 -115 -62 -58 -30 -136 -71 -175 -92 -119 -64 -236 -126 -325 -173
-81 -42 -140 -74 -325 -172 -44 -23 -123 -65 -175 -93 -52 -27 -122 -64 -155
-82 -33 -18 -118 -63 -190 -100 -71 -38 -142 -77 -157 -87 -16 -11 -28 -17
-28 -14 0 4 -17 -4 -37 -16 -21 -13 -56 -32 -78 -43 -22 -11 -42 -22 -45 -25
-3 -3 -30 -17 -60 -32 -30 -15 -95 -49 -145 -76 -49 -26 -139 -74 -200 -106
-60 -32 -141 -75 -180 -96 -38 -20 -115 -61 -170 -90 -55 -29 -122 -65 -150
-80 -27 -15 -104 -56 -170 -90 -66 -34 -138 -73 -160 -85 -22 -12 -85 -46
-140 -75 -179 -94 -269 -142 -320 -170 -27 -15 -93 -49 -145 -76 -52 -27 -97
-51 -100 -54 -3 -3 -48 -27 -100 -54 -170 -87 -245 -129 -252 -140 -4 -6 -8
-7 -8 -3 0 5 -28 -7 -62 -26 -72 -40 -189 -102 -368 -195 -69 -36 -128 -70
-132 -76 -4 -6 -8 -7 -8 -2 0 5 -6 4 -12 -2 -7 -5 -53 -31 -103 -57 -49 -26
-133 -70 -185 -98 -52 -28 -110 -57 -127 -66 -18 -8 -33 -19 -33 -23 0 -4 -7
-8 -16 -8 -9 0 -28 -8 -42 -18 -15 -10 -46 -26 -69 -37 -24 -10 -43 -23 -43
-28 0 -6 -3 -7 -7 -4 -3 4 -11 3 -17 -2 -10 -8 -53 -31 -271 -145 -33 -17 -62
-33 -65 -36 -3 -3 -53 -29 -112 -59 -60 -30 -108 -59 -108 -64 0 -6 -3 -7 -7
-4 -3 4 -25 -4 -47 -17 -66 -38 -481 -256 -488 -256 -2 0 -3 2072 -3 4604 l0
4604 140 168 c77 93 148 176 158 186 9 10 17 21 17 24 0 3 6 11 13 18 6 7 32
37 57 66 25 30 60 71 78 91 17 20 32 39 32 43 0 3 8 14 18 24 70 72 357 426
354 436 -2 6 -1 8 3 4 6 -5 29 20 110 120 5 7 17 21 26 30 8 9 57 69 109 132
52 63 97 117 100 120 4 4 56 66 110 133 8 10 25 31 38 45 13 15 35 43 50 62
15 18 38 46 52 61 14 16 30 34 35 41 6 7 75 92 155 188 80 96 149 181 155 188
5 7 17 21 26 30 8 9 49 58 89 107 41 50 79 95 85 101 5 7 21 26 35 44 14 17
37 46 53 63 44 51 46 55 40 61 -4 3 0 6 8 6 8 0 24 15 36 33 12 17 39 50 58
72 20 22 44 51 53 65 9 14 25 31 34 38 10 7 16 18 13 23 -4 5 1 9 9 9 9 0 16
3 16 8 0 4 10 19 23 34 60 71 102 123 102 127 0 2 14 18 30 35 17 18 41 47 55
65 14 18 30 39 37 46 7 7 49 57 94 111 44 55 91 110 102 124 82 96 167 200
163 200 -2 0 13 17 33 38 20 21 50 55 66 76 17 21 38 48 49 60 10 11 35 41 55
66 20 25 41 50 46 56 6 6 28 32 50 59 22 27 53 64 69 82 15 18 25 33 22 33 -4
0 9 14 29 31 20 18 34 34 31 36 -3 3 8 16 25 30 16 14 29 29 29 33 0 5 12 22
26 37 14 15 40 45 58 67 17 21 36 43 41 50 11 12 91 110 115 140 8 10 22 26
31 35 13 13 89 105 219 264 8 10 22 27 30 37 8 9 33 39 55 66 22 26 49 58 60
70 11 12 29 34 39 48 10 15 38 47 62 73 23 26 40 51 38 55 -3 5 -1 8 5 8 6 0
36 32 68 72 31 40 64 79 73 88 8 9 40 47 70 85 30 37 60 73 65 79 6 6 30 36
55 66 25 30 48 57 53 58 4 2 7 11 7 20 0 8 3 13 6 9 3 -3 22 15 42 41 20 26
40 52 46 58 6 6 27 31 47 55 69 83 301 364 339 409 21 25 75 90 120 145 46 55
87 102 91 103 5 2 9 8 9 14 0 6 8 18 18 27 10 9 31 34 48 55 16 22 38 49 49
60 11 12 31 36 45 54 14 18 36 45 50 60 14 15 41 47 60 72 19 24 40 48 45 54
6 6 28 33 50 61 22 27 48 59 59 70 10 11 30 36 45 55 14 19 40 51 57 70 17 19
53 62 80 95 27 33 58 71 70 85 12 14 138 165 279 335 141 171 269 324 283 341
43 50 215 259 235 284 27 35 112 136 126 151 9 9 30 33 46 55 17 21 45 55 62
75 18 20 30 39 28 43 -3 3 -2 4 1 2 5 -4 74 77 199 232 5 7 21 25 35 40 14 15
43 50 65 77 22 28 52 64 67 80 15 17 28 32 28 35 0 3 20 28 44 55 25 27 42 53
39 58 -3 6 -2 8 3 5 5 -3 25 14 44 38 19 24 37 44 40 44 3 0 19 -17 35 -37z
m7610 -24339 c0 -1779 -3 -3243 -7 -3252 -3 -9 -14 -26 -25 -37 -36 -38 -134
-156 -163 -197 -17 -23 -30 -38 -30 -34 0 4 -16 -14 -37 -41 -20 -26 -40 -49
-45 -51 -4 -2 -8 -8 -8 -12 0 -5 -10 -20 -22 -33 -13 -12 -36 -40 -53 -60 -16
-20 -41 -49 -55 -65 -14 -16 -38 -46 -55 -67 -16 -21 -35 -43 -40 -49 -6 -6
-28 -33 -50 -61 -22 -27 -45 -56 -52 -63 -7 -7 -29 -34 -50 -60 -21 -26 -40
-49 -43 -52 -3 -3 -62 -72 -130 -155 -69 -82 -128 -151 -132 -153 -5 -2 -8 -8
-8 -12 0 -8 -19 -32 -73 -87 -12 -13 -18 -23 -13 -23 5 0 -3 -9 -18 -21 -14
-11 -23 -26 -19 -32 3 -7 3 -9 -2 -5 -9 8 -45 -34 -45 -53 0 -7 -3 -10 -6 -6
-4 3 -25 -17 -47 -46 -22 -29 -44 -53 -49 -55 -4 -2 -8 -11 -8 -20 0 -8 -3
-13 -6 -9 -3 3 -22 -15 -42 -41 -20 -26 -40 -52 -46 -58 -6 -6 -24 -28 -41
-48 -16 -21 -38 -47 -48 -59 -66 -78 -103 -123 -172 -207 -43 -52 -85 -101
-93 -107 -9 -7 -13 -13 -9 -13 3 0 -4 -10 -16 -23 -12 -13 -29 -32 -37 -43 -8
-10 -61 -74 -117 -140 -56 -67 -99 -125 -95 -130 4 -4 1 -4 -5 0 -7 4 -13 3
-13 -2 0 -4 -8 -17 -17 -28 -10 -10 -38 -44 -63 -74 -25 -30 -47 -57 -50 -60
-3 -3 -25 -30 -50 -60 -25 -30 -56 -68 -70 -84 -14 -15 -24 -32 -22 -37 1 -5
-4 -9 -10 -10 -11 0 -70 -67 -103 -117 -5 -8 -19 -24 -30 -36 -11 -12 -36 -41
-55 -65 -19 -24 -43 -53 -53 -65 -10 -11 -30 -36 -45 -54 -15 -19 -37 -44 -49
-57 -13 -13 -23 -26 -23 -29 0 -3 -12 -19 -27 -35 -16 -16 -33 -36 -38 -43
-75 -93 -142 -175 -151 -183 -6 -5 -42 -48 -80 -95 -38 -47 -73 -90 -79 -96
-5 -6 -26 -30 -45 -54 -19 -24 -49 -59 -67 -79 -17 -20 -29 -40 -26 -46 4 -5
3 -7 -2 -3 -4 4 -30 -21 -57 -55 -27 -34 -54 -63 -59 -65 -5 -2 -9 -9 -9 -16
0 -6 -9 -18 -20 -26 -11 -8 -20 -19 -20 -24 0 -5 -6 -14 -14 -20 -7 -6 -58
-65 -112 -131 -54 -66 -103 -125 -109 -131 -5 -6 -26 -30 -45 -54 -19 -24 -41
-49 -48 -56 -7 -8 -10 -14 -6 -14 4 0 1 -6 -8 -13 -9 -6 -44 -46 -78 -87 -33
-41 -71 -86 -83 -100 -13 -14 -52 -61 -88 -105 -35 -44 -68 -85 -74 -91 -32
-36 -65 -75 -100 -119 -22 -27 -46 -56 -53 -64 -8 -8 -39 -46 -70 -85 -31 -39
-69 -84 -84 -99 -16 -16 -28 -32 -28 -35 0 -4 -12 -20 -28 -37 -71 -78 -132
-154 -132 -164 0 -7 -4 -9 -10 -6 -5 3 -10 1 -10 -4 0 -6 -8 -19 -17 -29 -10
-10 -27 -30 -38 -43 -86 -104 -113 -137 -135 -163 -14 -15 -24 -33 -22 -38 1
-5 -2 -7 -8 -3 -5 3 -10 2 -10 -2 0 -5 -10 -19 -23 -33 -19 -22 -48 -56 -128
-155 -76 -92 -135 -161 -141 -163 -5 -2 -8 -8 -8 -13 0 -6 -11 -20 -25 -33
-14 -13 -25 -27 -25 -31 0 -4 -8 -15 -18 -24 -42 -39 -111 -129 -104 -137 4
-5 3 -6 -2 -2 -4 4 -26 -15 -47 -42 -21 -26 -43 -51 -49 -55 -6 -3 -7 -12 -4
-18 4 -7 4 -9 -1 -5 -4 4 -24 -14 -43 -40 -20 -26 -41 -51 -47 -57 -6 -5 -31
-35 -56 -65 -24 -30 -46 -57 -49 -60 -3 -3 -37 -43 -75 -90 -38 -47 -76 -92
-85 -102 -8 -9 -26 -31 -40 -49 -14 -18 -30 -37 -35 -43 -6 -6 -68 -81 -139
-166 -70 -85 -139 -167 -152 -182 -13 -15 -24 -30 -24 -33 0 -2 -12 -17 -27
-33 -16 -15 -41 -46 -58 -67 -16 -21 -46 -57 -65 -79 -20 -23 -67 -79 -105
-126 -38 -47 -72 -87 -75 -90 -3 -3 -35 -41 -70 -85 -36 -44 -69 -85 -75 -91
-5 -6 -28 -33 -50 -59 -22 -27 -44 -53 -50 -59 -5 -6 -39 -47 -75 -91 -36 -44
-77 -93 -92 -110 -15 -16 -27 -33 -28 -37 0 -4 -13 -20 -28 -35 -15 -16 -36
-40 -47 -53 -23 -29 -123 -149 -165 -200 -17 -19 -43 -51 -59 -70 -15 -19 -66
-80 -112 -136 -46 -55 -100 -119 -119 -143 -19 -24 -40 -48 -45 -55 -6 -6 -53
-63 -105 -126 -52 -63 -100 -121 -107 -128 -13 -14 -22 -5 -99 88 -16 19 -33
40 -39 46 -5 6 -23 28 -40 49 -16 21 -35 43 -40 49 -13 14 -105 123 -125 149
-15 20 -51 62 -127 153 -71 84 -77 92 -103 126 -14 17 -37 46 -52 63 -14 16
-53 62 -85 100 -32 39 -61 72 -65 73 -5 2 -8 10 -8 17 0 7 -4 15 -9 17 -6 2
-131 149 -231 272 -8 10 -20 23 -25 30 -6 6 -39 46 -74 89 -35 42 -68 77 -73
77 -5 0 -7 4 -4 8 3 5 -3 15 -12 24 -9 8 -24 24 -32 34 -31 39 -145 179 -150
184 -3 3 -27 32 -55 65 -27 33 -54 65 -60 71 -5 6 -23 28 -40 49 -27 35 -70
87 -129 155 -11 14 -41 50 -65 80 -25 30 -49 60 -55 65 -6 6 -23 26 -37 45
-15 19 -35 44 -46 55 -10 11 -36 42 -58 70 -22 27 -44 55 -50 61 -15 17 -43
51 -119 144 -39 47 -72 87 -76 90 -3 3 -25 30 -50 60 -25 30 -47 57 -50 60 -3
3 -24 28 -46 57 -23 29 -44 49 -48 46 -3 -3 -6 0 -6 8 0 8 -17 33 -39 55 -21
23 -40 46 -42 51 -4 11 -78 99 -116 140 -13 13 -23 28 -23 33 0 4 -4 10 -8 12
-4 2 -30 30 -58 63 -27 33 -57 69 -66 80 -10 11 -67 81 -128 155 -62 74 -129
155 -150 180 -21 25 -51 61 -66 80 -16 19 -37 43 -48 53 -10 9 -15 17 -10 17
5 0 4 4 -2 8 -6 4 -37 39 -69 77 -31 39 -66 78 -77 88 -11 9 -17 17 -13 17 4
0 -10 19 -31 43 -22 24 -55 63 -74 86 -19 24 -47 58 -62 75 -21 25 -240 289
-298 359 -8 10 -23 28 -33 40 -11 12 -33 39 -50 61 -90 109 -131 156 -139 156
-4 0 -7 4 -5 8 1 4 -20 34 -48 67 -27 33 -57 68 -65 79 -8 10 -30 34 -47 53
-18 19 -33 37 -33 40 0 4 -84 108 -100 123 -3 3 -59 70 -125 150 -66 80 -128
154 -137 165 -105 127 -186 224 -198 239 -8 11 -26 32 -40 47 -14 15 -65 78
-115 138 -49 61 -93 111 -97 111 -4 0 -8 5 -8 11 0 7 -16 27 -35 45 -18 19
-32 34 -29 34 5 0 -47 64 -111 136 -5 7 -17 20 -25 30 -59 73 -206 251 -214
259 -6 6 -29 33 -50 60 -22 28 -44 55 -50 60 -6 6 -46 54 -89 107 -44 54 -84
98 -90 98 -6 0 -8 3 -4 6 6 6 -15 33 -70 91 -17 18 -28 33 -25 33 4 0 -4 10
-16 23 -12 12 -61 69 -109 127 -47 58 -100 121 -117 141 -17 21 -47 57 -66 80
-19 24 -45 54 -57 67 -13 13 -23 25 -23 29 0 3 -9 15 -20 27 -47 52 -120 142
-120 149 0 4 -7 7 -15 7 -8 0 -14 4 -12 8 2 7 -47 68 -282 351 -20 24 -45 53
-56 66 -11 12 -32 37 -47 56 -14 19 -36 45 -47 58 -12 13 -21 28 -21 33 0 5
-4 6 -10 3 -5 -3 -10 -1 -10 5 0 6 -6 17 -13 25 -6 7 -19 21 -27 32 -37 45
-105 128 -110 133 -7 6 -100 118 -150 180 -19 24 -42 51 -50 59 -8 9 -31 37
-50 61 -19 25 -37 47 -40 50 -6 5 -178 213 -249 300 -20 24 -48 57 -63 72 -16
15 -28 32 -28 38 0 5 -4 10 -8 10 -4 0 -17 15 -27 33 -19 31 -20 53 -21 509
l0 477 155 58 c86 32 159 58 164 59 4 1 9 3 12 4 3 1 8 3 13 5 4 1 15 5 24 9
9 4 22 9 30 10 7 1 23 7 34 14 12 6 24 8 28 5 3 -3 6 -2 6 3 0 5 8 11 18 11 9
1 53 16 97 33 44 17 85 32 90 33 6 2 24 8 40 14 37 14 64 22 70 23 3 0 18 6
35 15 16 8 37 17 47 18 10 2 29 9 43 14 14 6 90 34 170 62 80 28 152 55 160
60 9 5 31 12 50 16 19 4 40 11 45 15 6 4 35 15 65 25 30 10 60 22 66 26 6 5
14 6 17 2 4 -3 7 0 7 7 0 7 3 11 6 8 5 -6 77 17 194 62 30 12 71 26 90 32 19
6 40 13 45 16 6 4 12 7 15 7 3 0 19 5 35 12 35 13 204 74 465 168 102 36 208
74 235 85 28 10 91 33 140 50 50 17 99 35 110 40 20 9 61 24 295 106 69 25
132 47 140 51 8 3 17 7 20 8 3 1 12 4 20 8 31 12 115 42 120 43 3 0 12 4 20 7
22 9 463 168 475 171 6 2 17 6 25 9 17 7 99 36 115 41 6 2 17 6 25 9 8 4 42
16 75 28 33 12 71 26 85 32 29 12 50 18 68 19 6 1 12 5 12 10 0 4 6 8 13 8 14
0 224 74 342 120 11 5 99 36 195 70 96 34 184 66 195 71 11 5 34 13 50 18 26
8 102 35 270 97 22 8 47 17 55 19 8 2 43 15 78 29 34 13 64 25 65 25 1 0 9 2
17 5 8 3 98 35 200 71 102 36 194 70 205 75 11 4 74 27 140 50 133 47 149 53
185 68 26 11 358 131 375 136 59 16 95 31 95 39 0 6 3 8 6 4 6 -6 61 12 239
79 11 4 25 8 30 10 10 2 136 49 165 61 8 3 22 7 30 9 8 2 30 10 50 18 59 25
206 76 218 76 7 0 12 4 12 8 0 5 6 9 13 10 20 1 41 7 52 13 13 8 89 33 93 30
1 -1 15 5 30 13 31 16 127 52 182 68 19 5 41 15 48 20 6 6 12 7 12 4 0 -4 9
-2 21 4 11 6 28 13 38 15 9 2 35 11 57 21 21 9 46 18 55 20 9 2 29 9 45 15 16
7 34 13 39 15 21 5 412 148 517 188 36 14 73 26 80 26 7 0 24 7 36 16 12 8 22
12 22 9 0 -3 6 -3 13 2 6 4 14 8 17 8 8 1 162 56 185 66 11 5 77 29 147 54 71
24 137 49 148 55 11 6 20 9 20 6 0 -3 28 7 62 21 35 14 69 27 78 28 20 5 319
114 345 126 11 5 34 13 50 18 17 5 68 23 115 40 47 18 130 47 184 66 54 19
104 39 111 45 6 5 14 8 17 5 3 -3 18 1 34 10 16 8 34 15 41 15 6 0 33 9 60 21
26 11 55 22 63 24 8 2 78 26 155 55 77 28 160 59 185 67 25 8 56 20 70 26 14
5 31 11 38 13 8 1 21 6 30 10 9 4 20 8 24 8 3 1 10 4 14 9 4 4 16 7 26 7 10 0
18 4 18 8 0 4 8 8 18 9 14 0 393 135 452 160 8 3 20 7 25 9 6 1 123 43 260 94
138 50 255 93 260 94 6 2 17 6 25 9 8 4 38 14 65 23 28 9 61 21 75 27 14 5 30
11 35 13 6 1 35 12 65 24 30 12 62 23 70 25 25 6 85 30 90 35 3 3 12 6 20 7
12 1 229 79 345 123 17 6 32 12 35 12 3 0 34 11 70 25 36 14 117 43 180 65 63
21 130 46 148 54 17 8 51 21 75 28 63 20 297 105 308 112 5 3 17 7 26 9 27 6
105 34 128 46 12 6 27 11 35 13 8 2 29 9 45 16 17 7 35 14 40 15 6 1 13 3 18
5 4 1 10 3 15 5 4 1 14 5 22 8 25 10 214 78 225 80 6 2 15 6 21 9 5 4 52 21
104 38 51 17 102 36 114 42 12 7 28 13 36 14 8 1 85 27 170 59 85 31 160 58
165 59 6 1 17 6 25 11 8 5 21 10 28 11 19 3 116 38 122 44 3 3 12 6 20 8 8 1
49 15 90 30 41 16 77 27 80 25 2 -2 4 -1460 5 -3239z"/>
</g>
</svg>
