
<svg xmlns="http://www.w3.org/2000/svg" version="1.1" xmlns:xlink="http://www.w3.org/1999/xlink" preserveAspectRatio="none" x="0px" y="0px" width="1024px" height="1024px" viewBox="0 0 1024 1024">
<defs/>

<g id="Layer_1">
<g transform="matrix( 1, 0, 0, 1, 0,0) ">
<g>
<g>

<path fill="#0F52BA" stroke="none" d="
M 320.9 290.4
L 286.65 324.65 286.65 785.05 286.6 785.05 477.75 976.2 494.3 959.7 494.3 959.65 320.9 750.8 320.9 726.75 320.9 520.55 320.9 290.4
M 703.1 290.35
L 703.1 317.65 703.1 588.55 703.1 750.85 702.85 751.15 737.35 716.65 737.35 239 554.8 56.45 529.75 81.5 703.1 290.35 Z"/>

<path fill="#4782DE" stroke="none" d="
M 529.75 81.5
L 554.8 56.45 512 13.65 286.65 239 286.65 324.65 320.9 290.4 348.8 262.5 348.75 262.45 320.9 290.35 512 60.15 529.75 81.5
M 737.35 785.1
L 737.35 716.65 702.85 751.15 512 981 494.3 959.7 477.75 976.2 512 1010.45 737.35 785.1
M 702.85 751.15
L 703.1 750.85 654.7 799.25 654.7 799.25 702.85 751.15 Z"/>

<path fill="#69A0F5" stroke="none" d="
M 703.1 588.55
L 703.1 317.65 320.9 520.55 320.9 726.75 703.1 588.55 Z"/>
</g>
</g>
</g>
</g>
</svg>
