<svg preserveAspectRatio="none" version="1.1" viewBox="0 0 1024 1024" xmlns="http://www.w3.org/2000/svg">
<g>
<g>
<path d="m320.9 290.4-34.25 34.25v460.4h-0.05l191.15 191.15 16.55-16.5v-0.05l-173.4-208.85v-24.05-206.2-230.15m382.2-0.05v27.3 270.9 162.3l-0.25 0.3 34.5-34.5v-477.65l-182.55-182.55-25.05 25.05 173.35 208.85z" fill="#0F52BA"/>
<path d="m529.75 81.5 25.05-25.05-42.8-42.8-225.35 225.35v85.65l62.15-62.15-0.05-0.05-27.85 27.9 191.1-230.2 17.75 21.35m207.6 703.6v-68.45l-34.5 34.5-190.85 229.85-17.7-21.3-16.55 16.5 34.25 34.25 225.35-225.35m-34.5-33.95 0.25-0.3-48.4 48.4 48.15-48.1z" fill="#4782DE"/>
<path d="m703.1 588.55v-270.9l-382.2 202.9v206.2l382.2-138.2z" fill="#69A0F5"/>
</g>
</g>
</svg>
